name processed_emg_signals
nRows=32
nColumns=7
 
endheader
time	RGLTMED	RRF	RADDLONG	RST	RTA	RGM
0.98	0.1074910843860685	0.2667166809364409	0.1187706276689522	0.065951774945389	0.1023772629867701	0.3059208021532879
0.981	0.1075066103020839	0.2662111949989846	0.1187420293969429	0.063673852293217	0.1022172687295289	0.3054170225936306
0.982	0.1075060226076626	0.2656374501420599	0.1186820714494617	0.0614396826041851	0.1020586472442381	0.3048977231604423
0.983	0.1074893149660475	0.2649964451166178	0.1185908351299129	0.0592496874125724	0.1019018128660865	0.3043635821748556
0.984	0.1074564866298146	0.264289239689303	0.1184684326614698	0.057104246922522	0.101747187293096	0.3038153102278006
0.985	0.1074075422980709	0.2635169525014333	0.1183150069033909	0.0550037015266444	0.1015951990000596	0.3032536495053267
0.986	0.1073424919926451	0.2626807588722039	0.1181307310292664	0.0529483533705983	0.1014462826392581	0.302679373012763
0.987	0.1072613509544649	0.2617818885531156	0.1179158081696963	0.0509384679594226	0.1013008784278249	0.3020932836975745
0.988	0.1071641395611389	0.2608216234404266	0.1176704710220343	0.0489742758014796	0.1011594315215107	0.3014962134710618
0.989	0.1070508832665596	0.2598012952521583	0.117394981429916	0.0470559740857196	0.1010223913744053	0.3008890221293019
0.99	0.1069216125631209	0.258722283176155	0.117089629935258	0.0451837283880991	0.1008902110839842	0.3002725961736191
0.991	0.1067763629669289	0.2575860114956091	0.1167547353053581	0.0433576744029048	0.1007633467207687	0.2996478475310886
0.992	0.1066151750261308	0.2563939471982943	0.116390644037601	0.0415779196947707	0.1006422566416122	0.2990157121757978
0.993	0.1064380943522356	0.2551475975754227	0.1159977298441501	0.0398445454672517	0.1005274007855015	0.2983771486520448
0.994	0.1062451716739757	0.2538485078153241	0.1155763931189025	0.0381576083437898	0.1004192399506343	0.2977331365014558
0.995	0.1060364629130324	0.2524982585964722	0.1151270603889648	0.0365171421571141	0.1003182350514352	0.297084674596962
0.996	0.1058120292806245	0.2510984636836787	0.1146501837528714	0.0349231597431116	0.1002248463542519	0.2964327793876353
0.997	0.1055719373937135	0.2496507675308423	0.1141462403077583	0.0333756547354707	0.1001395326907153	0.2957784830594362
0.998	0.1053162594093514	0.2481568428935995	0.1136157315675688	0.0318746033574761	0.1000627506481502	0.2951228316178884
0.999	0.1050450731754588	0.2466183884552162	0.1130591828743177	0.0304199662074493	0.0999949537369898	0.29446688289936
1.0	0.1047584623961795	0.2450371264691404	0.112477142804084	0.0290116900343948	0.0999365915355317	0.2938117045179895
1.0010000000000001	0.1044565168097751	0.2434148004214815	0.1118701825692655	0.0276497095005084	0.0998881088128308	0.2931583717555068
1.002	0.1041393323769786	0.2417531727160884	0.1112388954181516	0.0263339489272182	0.0998499446306357	0.29250796540101
1.0030000000000001	0.1038070114776165	0.2400540223844018	0.1105838960326191	0.0250643240215323	0.0998225314255887	0.2918615695471804
1.004	0.1034596631132121	0.2383191428215455	0.1099058199242851	0.0238407435794229	0.0998062940729282	0.2912202693487579
1.0050000000000001	0.1030974031132001	0.2365503395496562	0.1092053228292398	0.0226631111629921	0.0998016489331335	0.2905851487483308
1.006	0.1027203543423816	0.2347494280091087	0.1084830801011028	0.0215313267482254	0.0998090028831708	0.2899572881739795
1.0070000000000001	0.1023286469075103	0.2329182313778482	0.1077397861018857	0.020445288340176	0.0998287523343244	0.2893377622127173
1.008	0.10192241836137	0.2310585784187322	0.1069761535899395	0.0194048935526213	0.0998612822390362	0.288727637263562
1.0090000000000001	0.1015018139032035	0.2291723013542517	0.1061929131041124	0.0184100411493468	0.0999069650894717	0.2881279691739904
1.01	0.1010669865748354	0.2272612337675123	0.10539081234326	0.0174606325445227	0.0999661599108152	0.28753980086391
1.0110000000000001	0.1006180974521582	0.2253272085278999	0.104570615540321	0.016556573259782	0.1000392112523696	0.2869641599418223
